<?xml version="1.0" encoding="UTF-8"?>
<svg id="Camada_2" data-name="Camada 2" xmlns="http://www.w3.org/2000/svg" viewBox="0 0 344.93 79.88">
  <defs>
    <style>
      .cls-1 {
        fill: #fff;
      }

      .cls-2 {
        fill: blue;
      }
    </style>
  </defs>
  <g id="Camada_1-2" data-name="Camada 1">
    <g id="assinatura1_4">
      <g>
        <path class="cls-1" d="m115.64,64.51l-9.35-27.28-9.35,27.28h-7.39l-12.89-34.99h7.11l9.56,28.95,8.79-27.42c.29-.92,1.14-1.53,2.1-1.53h4.22c.96,0,1.81.61,2.1,1.53l8.86,27.43,9.42-28.96h7.04l-12.76,34.99h-7.46Z"/>
        <rect class="cls-1" x="141.33" y="29.52" width="6.9" height="34.99"/>
        <path class="cls-1" d="m166.49,64.55c-2.22,0-4.21-.81-5.92-2.4-1.7-1.59-2.57-4.13-2.57-7.57V15.4h6.9v38.33c0,3.74,2,4.52,3.68,4.52,1,0,2.1-.31,3.28-.91l.94,5.5c-2.18,1.13-4.3,1.71-6.3,1.71Z"/>
        <path class="cls-1" d="m186.02,64.55c-2.22,0-4.21-.81-5.92-2.4-1.7-1.59-2.57-4.13-2.57-7.57V15.4h6.9v38.33c0,3.74,2,4.52,3.68,4.52,1,0,2.1-.31,3.28-.91l.94,5.5c-2.18,1.13-4.3,1.71-6.3,1.71Z"/>
        <path class="cls-1" d="m211.58,64.55c-3.67,0-6.78-.79-9.24-2.35-2.65-1.79-4.59-4.06-5.75-6.74-1.17-2.69-1.77-5.58-1.77-8.57,0-3.7.75-6.89,2.22-9.46,1.47-2.57,3.48-4.55,5.97-5.9,2.5-1.35,5.34-2.04,8.44-2.04,5.61,0,9.78,2.13,12.38,6.34l.71,1.15V15.4h6.96v49.11h-6.96v-7.39l-.71,1.15c-2.56,4.16-6.68,6.27-12.24,6.27Zm1.61-29.24c-3.6,0-6.4,1.14-8.32,3.37-1.91,2.22-2.95,5.06-3.08,8.45.09,3.42,1.07,6.24,2.91,8.42,1.86,2.2,4.72,3.31,8.49,3.31,3.55,0,6.36-1.17,8.36-3.47,1.98-2.29,2.98-5.06,2.98-8.24s-1-5.97-2.98-8.3c-1.99-2.35-4.81-3.54-8.36-3.54Z"/>
        <path class="cls-1" d="m251.43,64.55c-3.91,0-6.95-1.09-9.03-3.24-2.09-2.15-3.15-4.69-3.15-7.56s1.04-5.34,3.1-7.24c2.07-1.91,5.44-2.88,10.02-2.88h11.2v-.38c0-1.54-.17-2.77-.49-3.66-.94-3.06-3.78-4.62-8.43-4.62-3.36,0-6.87,1.12-10.43,3.32l-2.77-4.57c4.37-2.81,9.37-4.24,14.87-4.24,4.93,0,8.55,1.14,10.75,3.39,2.2,2.25,3.32,5.18,3.32,8.71l.07,22.92h-6.83v-5.21l-.67.77c-2.6,2.97-6.48,4.48-11.54,4.48Zm2.08-16.2c-5.16,0-7.78,1.69-7.78,5.02,0,2.01.72,3.51,2.15,4.45,1.38.91,3.11,1.37,5.15,1.37,3.16,0,5.66-.68,7.42-2.03,1.78-1.36,2.82-3.07,3.1-5.09v-.03s0-3.7,0-3.7h-10.06Z"/>
        <path class="cls-1" d="m290.39,64.55c-5.33,0-10.01-1.58-13.9-4.69l2.41-4.69c3.71,2.72,7.69,4.1,11.83,4.1s6.23-1.4,6.23-4.15c0-1.38-.64-2.53-1.91-3.42-1.2-.84-3.15-1.59-5.81-2.24-2.57-.61-5.07-1.63-7.42-3.06-2.27-1.37-3.49-3.78-3.61-7.15,0-2.26.58-4.14,1.73-5.56,2.41-2.79,6.14-4.22,11.06-4.22,4.27,0,8.31,1.14,12.01,3.39l-2.49,5.15c-3.63-2.07-7.03-3.12-10.12-3.12-3.73,0-5.63,1.31-5.63,3.88,0,1.28.62,2.33,1.85,3.14,1.17.77,2.99,1.42,5.57,1.99,2.89.73,5.56,1.84,7.91,3.29,2.27,1.4,3.49,3.86,3.62,7.31,0,2.26-.6,4.16-1.78,5.62-1.19,1.48-2.81,2.59-4.81,3.31-2.02.73-4.29,1.1-6.74,1.1Z"/>
        <path class="cls-1" d="m337.97,64.51v-19.55c0-2.53-.73-4.67-2.17-6.38-1.46-1.73-3.75-2.6-6.81-2.6h-.04c-3.58.37-6.27,1.63-7.99,3.74-1.71,2.1-2.57,4.7-2.57,7.71v17.08h-6.96V15.4h6.96v22.55l.72-1.42c2.38-4.68,6.72-7.05,12.9-7.05,4.39,0,7.67,1.27,9.76,3.77,2.1,2.52,3.17,5.73,3.17,9.54v21.72h-6.96Z"/>
      </g>
      <g>
        <path class="cls-1" d="m33.41,79.88c-3.74-.03-7.36-.44-9.74-1.13-2.77-.79-5.16-2.4-6.72-4.53-1.71-2.33-2.58-5.68-2.58-9.95V9.9h10.55v54.38c0,1.83.48,3.45,1.34,4.56.78,1.01,1.79,1.63,2.98,1.85.91.17,3.24.2,4.17.21v8.97Z"/>
        <path class="cls-1" d="m45.49,69.97V15.59c0-1.83-.48-3.45-1.34-4.56-.78-1.01-1.79-1.63-2.98-1.85-.91-.17-3.24-.2-4.16-.21V0c3.74.03,7.36.44,9.74,1.13,2.77.79,5.16,2.4,6.72,4.53,1.71,2.33,2.58,5.68,2.58,9.95v54.36h-10.55Z"/>
        <path class="cls-2" d="m15.1,61.15c-2.68,0-5.46-.94-7.81-2.65-2.12-1.54-4.83-4.29-7.29-7.39l7.5-5.86c.6.75,2.16,2.69,2.9,3.34.96.84,2.12,1.27,3.45,1.27,1.5,0,3.15-.66,4.67-1.85L63.79,12.62l6.9,8.81L25.42,56.81c-3.56,2.78-6.92,4.24-9.97,4.33-.12,0-.24,0-.35,0Z"/>
      </g>
    </g>
  </g>
</svg>