<?xml version="1.0" encoding="UTF-8"?>
<svg id="Camada_2" data-name="Camada 2" xmlns="http://www.w3.org/2000/svg" viewBox="0 0 407.26 457.66">
  <defs>
    <style>
      .cls-1 {
        fill: blue;
      }
    </style>
  </defs>
  <g id="Camada_1-2" data-name="Camada 1">
    <g id="assinatura2_3">
      <path d="m194.81,402.43v55.22c-20.82,0-42.92-2.15-58.03-6.48-15.12-4.31-29.5-13.18-39.31-26.53-9.82-13.35-15.07-32.61-15.07-57.75V56.2l64.23.05v310.73c0,10.99,3.04,19.26,7.16,24.57,4.12,5.29,9.32,8.54,15.61,9.71,6.28,1.17,25.41,1.17,25.41,1.17Z"/>
      <path d="m210.87,55.22V0c20.82,0,42.92,2.15,58.03,6.48,15.12,4.31,29.5,13.18,39.31,26.53,9.82,13.35,15.07,32.61,15.07,57.75v310.69s-64.23-.05-64.23-.05V90.67c0-10.99-3.04-19.26-7.16-24.57-4.12-5.29-9.32-8.54-15.61-9.71-6.28-1.17-25.41-1.17-25.41-1.17Z"/>
      <path class="cls-1" d="m63.47,276.25c5.06,4.47,11.15,6.68,18.24,6.67,7.1-.03,15.96-2.88,25.1-10.02L365.43,70.73l41.83,53.43-258.58,202.13c-20.92,16.36-40.37,24.51-57.87,25.03-17.49.52-34.23-5.68-47.66-15.45-13.43-9.76-29.6-26.75-43.15-44.08l45.96-35.93s12.45,15.93,17.51,20.39Z"/>
    </g>
  </g>
</svg>