<?xml version="1.0" encoding="UTF-8"?>
<svg id="Camada_2" data-name="Camada 2" xmlns="http://www.w3.org/2000/svg" viewBox="0 0 432.41 100.83">
  <defs>
    <style>
      .cls-1 {
        fill: blue;
      }
    </style>
  </defs>
  <g id="Camada_1-2" data-name="Camada 1">
    <g id="assinatura1_1">
      <g>
        <path d="m154.91,81.62h-10l-11.35-33.11-11.35,33.11h-9.92l-16.47-44.71h9.92l11.6,35.13,10.54-32.88c.43-1.34,1.68-2.25,3.09-2.25h5.28c1.41,0,2.65.91,3.08,2.24l10.62,32.88,11.43-35.13h9.83l-16.3,44.71Z"/>
        <path d="m186.48,81.62h-9.58v-44.71h9.58v44.71Z"/>
        <path d="m208.83,81.66c-2.91,0-5.49-1.04-7.73-3.13-2.24-2.09-3.36-5.36-3.36-9.81V19.26h9.58v48.4c0,3.45,1.37,5.17,4.12,5.17,1.34,0,2.83-.47,4.45-1.41l1.34,7.88c-2.91,1.57-5.71,2.35-8.4,2.35Z"/>
        <path d="m233.24,81.66c-2.91,0-5.49-1.04-7.73-3.13-2.24-2.09-3.36-5.36-3.36-9.81V19.26h9.58v48.4c0,3.45,1.37,5.17,4.12,5.17,1.34,0,2.83-.47,4.45-1.41l1.34,7.88c-2.91,1.57-5.71,2.35-8.4,2.35Z"/>
        <path d="m265.2,81.66c-4.71,0-8.64-1.01-11.81-3.02-3.42-2.31-5.88-5.19-7.37-8.64-1.5-3.44-2.25-7.08-2.25-10.91,0-4.74.95-8.76,2.84-12.07,1.89-3.31,4.44-5.83,7.65-7.56,3.21-1.73,6.8-2.6,10.78-2.6,7.23,0,12.52,2.72,15.88,8.15v-25.76h9.66v62.36h-9.66v-8.03c-3.31,5.38-8.54,8.07-15.72,8.07Zm2.02-8.07c4.31,0,7.68-1.39,10.08-4.18,2.41-2.78,3.61-6.11,3.61-9.99s-1.2-7.23-3.61-10.07c-2.41-2.84-5.77-4.26-10.08-4.26s-7.72,1.35-10.04,4.05c-2.33,2.7-3.57,6.13-3.74,10.27.11,4.15,1.29,7.55,3.53,10.19,2.24,2.65,5.66,3.97,10.25,3.97Z"/>
        <path d="m315.03,81.66c-5.04,0-8.92-1.4-11.64-4.19-2.72-2.8-4.08-6.06-4.08-9.78s1.34-6.92,4.03-9.4c2.69-2.48,6.98-3.73,12.86-3.73h13.53c0-1.87-.2-3.35-.59-4.42-1.12-3.64-4.48-5.46-10.08-5.46-4.26,0-8.66,1.45-13.19,4.34l-3.95-6.52c5.66-3.75,12.07-5.63,19.25-5.63,6.33,0,10.93,1.46,13.78,4.38,2.86,2.92,4.29,6.67,4.29,11.23l.08,29.14h-9.5v-5.72c-3.36,3.84-8.29,5.76-14.79,5.76Zm2.02-7.65c3.87,0,6.86-.81,8.99-2.44,2.13-1.62,3.36-3.64,3.7-6.05v-4.12h-12.1c-6.16,0-9.24,1.93-9.24,5.8,0,2.35.83,4.08,2.48,5.17,1.65,1.09,3.71,1.64,6.18,1.64Z"/>
        <path d="m363.74,81.66c-6.95,0-12.94-2.07-17.98-6.22l3.45-6.72c4.71,3.58,9.69,5.37,14.96,5.37,4.87,0,7.31-1.57,7.31-4.71,0-1.57-.73-2.86-2.19-3.88-1.46-1.02-3.82-1.93-7.1-2.72-3.28-.77-6.42-2.06-9.41-3.88-3-1.82-4.58-4.93-4.75-9.33,0-2.97.76-5.39,2.27-7.27,3.14-3.63,7.87-5.45,14.2-5.45,5.6,0,10.81,1.51,15.63,4.54l-3.53,7.29c-4.65-2.73-8.94-4.1-12.86-4.1-4.37,0-6.55,1.46-6.55,4.37,0,1.43.7,2.61,2.1,3.53,1.4.92,3.67,1.73,6.81,2.41,3.7.94,7.04,2.32,10.04,4.17,3,1.84,4.58,5.02,4.75,9.53,0,2.97-.78,5.42-2.33,7.35-1.55,1.93-3.63,3.36-6.22,4.29-2.59.94-5.46,1.4-8.59,1.4Z"/>
        <path d="m432.41,81.62h-9.66v-24.92c0-3.06-.87-5.61-2.61-7.67-1.74-2.06-4.45-3.08-8.15-3.08-4.37.45-7.59,1.95-9.66,4.5-2.07,2.56-3.11,5.67-3.11,9.33v21.84h-9.66V19.26h9.66v26.68c3.08-6.05,8.6-9.08,16.56-9.08,5.66,0,9.85,1.63,12.56,4.88,2.72,3.26,4.08,7.33,4.08,12.23v27.64Z"/>
      </g>
      <g>
        <path class="cls-1" d="m42.92,88.66v12.17c-4.59,0-9.46-.47-12.78-1.43-3.33-.95-6.5-2.9-8.66-5.85-2.16-2.94-3.32-7.18-3.32-12.72V12.38h14.15v68.47c0,2.42.67,4.24,1.58,5.41.91,1.17,2.05,1.88,3.44,2.14,1.38.26,5.6.26,5.6.26Z"/>
        <path class="cls-1" d="m46.46,12.17V0c4.59,0,9.46.47,12.78,1.43,3.33.95,6.5,2.9,8.66,5.85,2.16,2.94,3.32,7.18,3.32,12.72v68.45s-14.15-.01-14.15-.01V19.98c0-2.42-.67-4.24-1.58-5.41-.91-1.17-2.05-1.88-3.44-2.14-1.38-.26-5.6-.26-5.6-.26Z"/>
        <path d="m13.98,60.86c1.12.98,2.46,1.47,4.02,1.47,1.56,0,3.52-.63,5.53-2.21L80.51,15.58l9.22,11.77-56.97,44.53c-4.61,3.6-8.89,5.4-12.75,5.51-3.85.12-7.54-1.25-10.5-3.4-2.96-2.15-6.52-5.89-9.51-9.71l10.13-7.92s2.74,3.51,3.86,4.49Z"/>
      </g>
    </g>
  </g>
</svg>